<svg xmlns="http://www.w3.org/2000/svg" width="1200" height="360" viewBox="0 0 1200 360" role="img" aria-label="dotfiles">
  <rect width="1200" height="360" rx="16" fill="#0d1117"/>
  <g fill="#8b949e" opacity="0.18">
    <circle cx="48" cy="40" r="1.4"/>
    <circle cx="96" cy="40" r="1.4"/>
    <circle cx="144" cy="40" r="1.4"/>
    <circle cx="192" cy="40" r="1.4"/>
    <circle cx="240" cy="40" r="1.4"/>
    <circle cx="288" cy="40" r="1.4"/>
    <circle cx="336" cy="40" r="1.4"/>
    <circle cx="384" cy="40" r="1.4"/>
    <circle cx="432" cy="40" r="1.4"/>
    <circle cx="480" cy="40" r="1.4"/>
    <circle cx="528" cy="40" r="1.4"/>
    <circle cx="576" cy="40" r="1.4"/>
    <circle cx="624" cy="40" r="1.4"/>
    <circle cx="672" cy="40" r="1.4"/>
    <circle cx="720" cy="40" r="1.4"/>
    <circle cx="768" cy="40" r="1.4"/>
    <circle cx="816" cy="40" r="1.4"/>
    <circle cx="864" cy="40" r="1.4"/>
    <circle cx="912" cy="40" r="1.4"/>
    <circle cx="960" cy="40" r="1.4"/>
    <circle cx="1008" cy="40" r="1.4"/>
    <circle cx="1056" cy="40" r="1.4"/>
    <circle cx="1104" cy="40" r="1.4"/>
    <circle cx="1152" cy="40" r="1.4"/>
    <circle cx="48" cy="88" r="1.4"/>
    <circle cx="96" cy="88" r="1.4"/>
    <circle cx="144" cy="88" r="1.4"/>
    <circle cx="192" cy="88" r="1.4"/>
    <circle cx="240" cy="88" r="1.4"/>
    <circle cx="288" cy="88" r="1.4"/>
    <circle cx="336" cy="88" r="1.4"/>
    <circle cx="384" cy="88" r="1.4"/>
    <circle cx="432" cy="88" r="1.4"/>
    <circle cx="480" cy="88" r="1.4"/>
    <circle cx="528" cy="88" r="1.4"/>
    <circle cx="576" cy="88" r="1.4"/>
    <circle cx="624" cy="88" r="1.4"/>
    <circle cx="672" cy="88" r="1.4"/>
    <circle cx="720" cy="88" r="1.4"/>
    <circle cx="768" cy="88" r="1.4"/>
    <circle cx="816" cy="88" r="1.4"/>
    <circle cx="864" cy="88" r="1.4"/>
    <circle cx="912" cy="88" r="1.4"/>
    <circle cx="960" cy="88" r="1.4"/>
    <circle cx="1008" cy="88" r="1.4"/>
    <circle cx="1056" cy="88" r="1.4"/>
    <circle cx="1104" cy="88" r="1.4"/>
    <circle cx="1152" cy="88" r="1.4"/>
    <circle cx="48" cy="136" r="1.4"/>
    <circle cx="96" cy="136" r="1.4"/>
    <circle cx="144" cy="136" r="1.4"/>
    <circle cx="192" cy="136" r="1.4"/>
    <circle cx="240" cy="136" r="1.4"/>
    <circle cx="288" cy="136" r="1.4"/>
    <circle cx="336" cy="136" r="1.4"/>
    <circle cx="384" cy="136" r="1.4"/>
    <circle cx="432" cy="136" r="1.4"/>
    <circle cx="480" cy="136" r="1.4"/>
    <circle cx="528" cy="136" r="1.4"/>
    <circle cx="576" cy="136" r="1.4"/>
    <circle cx="624" cy="136" r="1.4"/>
    <circle cx="672" cy="136" r="1.4"/>
    <circle cx="720" cy="136" r="1.4"/>
    <circle cx="768" cy="136" r="1.4"/>
    <circle cx="816" cy="136" r="1.4"/>
    <circle cx="864" cy="136" r="1.4"/>
    <circle cx="912" cy="136" r="1.4"/>
    <circle cx="960" cy="136" r="1.4"/>
    <circle cx="1008" cy="136" r="1.4"/>
    <circle cx="1056" cy="136" r="1.4"/>
    <circle cx="1104" cy="136" r="1.4"/>
    <circle cx="1152" cy="136" r="1.4"/>
    <circle cx="48" cy="184" r="1.4"/>
    <circle cx="96" cy="184" r="1.4"/>
    <circle cx="144" cy="184" r="1.4"/>
    <circle cx="192" cy="184" r="1.4"/>
    <circle cx="240" cy="184" r="1.4"/>
    <circle cx="288" cy="184" r="1.4"/>
    <circle cx="336" cy="184" r="1.4"/>
    <circle cx="384" cy="184" r="1.4"/>
    <circle cx="432" cy="184" r="1.4"/>
    <circle cx="480" cy="184" r="1.4"/>
    <circle cx="528" cy="184" r="1.4"/>
    <circle cx="576" cy="184" r="1.4"/>
    <circle cx="624" cy="184" r="1.4"/>
    <circle cx="672" cy="184" r="1.4"/>
    <circle cx="720" cy="184" r="1.4"/>
    <circle cx="768" cy="184" r="1.4"/>
    <circle cx="816" cy="184" r="1.4"/>
    <circle cx="864" cy="184" r="1.4"/>
    <circle cx="912" cy="184" r="1.4"/>
    <circle cx="960" cy="184" r="1.4"/>
    <circle cx="1008" cy="184" r="1.4"/>
    <circle cx="1056" cy="184" r="1.4"/>
    <circle cx="1104" cy="184" r="1.4"/>
    <circle cx="1152" cy="184" r="1.4"/>
    <circle cx="48" cy="232" r="1.4"/>
    <circle cx="96" cy="232" r="1.4"/>
    <circle cx="144" cy="232" r="1.4"/>
    <circle cx="192" cy="232" r="1.4"/>
    <circle cx="240" cy="232" r="1.4"/>
    <circle cx="288" cy="232" r="1.4"/>
    <circle cx="336" cy="232" r="1.4"/>
    <circle cx="384" cy="232" r="1.4"/>
    <circle cx="432" cy="232" r="1.4"/>
    <circle cx="480" cy="232" r="1.4"/>
    <circle cx="528" cy="232" r="1.4"/>
    <circle cx="576" cy="232" r="1.4"/>
    <circle cx="624" cy="232" r="1.4"/>
    <circle cx="672" cy="232" r="1.4"/>
    <circle cx="720" cy="232" r="1.4"/>
    <circle cx="768" cy="232" r="1.4"/>
    <circle cx="816" cy="232" r="1.4"/>
    <circle cx="864" cy="232" r="1.4"/>
    <circle cx="912" cy="232" r="1.4"/>
    <circle cx="960" cy="232" r="1.4"/>
    <circle cx="1008" cy="232" r="1.4"/>
    <circle cx="1056" cy="232" r="1.4"/>
    <circle cx="1104" cy="232" r="1.4"/>
    <circle cx="1152" cy="232" r="1.4"/>
    <circle cx="48" cy="280" r="1.4"/>
    <circle cx="96" cy="280" r="1.4"/>
    <circle cx="144" cy="280" r="1.4"/>
    <circle cx="192" cy="280" r="1.4"/>
    <circle cx="240" cy="280" r="1.4"/>
    <circle cx="288" cy="280" r="1.4"/>
    <circle cx="336" cy="280" r="1.4"/>
    <circle cx="384" cy="280" r="1.4"/>
    <circle cx="432" cy="280" r="1.4"/>
    <circle cx="480" cy="280" r="1.4"/>
    <circle cx="528" cy="280" r="1.4"/>
    <circle cx="576" cy="280" r="1.4"/>
    <circle cx="624" cy="280" r="1.4"/>
    <circle cx="672" cy="280" r="1.4"/>
    <circle cx="720" cy="280" r="1.4"/>
    <circle cx="768" cy="280" r="1.4"/>
    <circle cx="816" cy="280" r="1.4"/>
    <circle cx="864" cy="280" r="1.4"/>
    <circle cx="912" cy="280" r="1.4"/>
    <circle cx="960" cy="280" r="1.4"/>
    <circle cx="1008" cy="280" r="1.4"/>
    <circle cx="1056" cy="280" r="1.4"/>
    <circle cx="1104" cy="280" r="1.4"/>
    <circle cx="1152" cy="280" r="1.4"/>
    <circle cx="48" cy="328" r="1.4"/>
    <circle cx="96" cy="328" r="1.4"/>
    <circle cx="144" cy="328" r="1.4"/>
    <circle cx="192" cy="328" r="1.4"/>
    <circle cx="240" cy="328" r="1.4"/>
    <circle cx="288" cy="328" r="1.4"/>
    <circle cx="336" cy="328" r="1.4"/>
    <circle cx="384" cy="328" r="1.4"/>
    <circle cx="432" cy="328" r="1.4"/>
    <circle cx="480" cy="328" r="1.4"/>
    <circle cx="528" cy="328" r="1.4"/>
    <circle cx="576" cy="328" r="1.4"/>
    <circle cx="624" cy="328" r="1.4"/>
    <circle cx="672" cy="328" r="1.4"/>
    <circle cx="720" cy="328" r="1.4"/>
    <circle cx="768" cy="328" r="1.4"/>
    <circle cx="816" cy="328" r="1.4"/>
    <circle cx="864" cy="328" r="1.4"/>
    <circle cx="912" cy="328" r="1.4"/>
    <circle cx="960" cy="328" r="1.4"/>
    <circle cx="1008" cy="328" r="1.4"/>
    <circle cx="1056" cy="328" r="1.4"/>
    <circle cx="1104" cy="328" r="1.4"/>
    <circle cx="1152" cy="328" r="1.4"/>
  </g>
  <text x="80" y="128" fill="#e6edf3" font-family="ui-monospace, SFMono-Regular, Menlo, monospace" font-size="64" font-weight="650">dotfiles</text>
  <text x="82" y="172" fill="#8b949e" font-family="ui-monospace, SFMono-Regular, Menlo, monospace" font-size="20">From a clean Mac to a working one</text>
  <rect x="80" y="208" width="760" height="64" rx="10" fill="#161b22" stroke="#30363d"/>
  <circle cx="108" cy="240" r="6" fill="#ff5f57"/>
  <circle cx="128" cy="240" r="6" fill="#febc2e"/>
  <circle cx="148" cy="240" r="6" fill="#28c840"/>
  <text x="176" y="247" fill="#3fb950" font-family="ui-monospace, SFMono-Regular, Menlo, monospace" font-size="18">$</text>
  <text x="196" y="247" fill="#e6edf3" font-family="ui-monospace, SFMono-Regular, Menlo, monospace" font-size="18">curl -fsSL alexiscreuzot.com/dots | sh</text>
  <rect x="688" y="232" width="10" height="20" rx="1" fill="#79c0ff"/>
</svg>
